<svg width="22" height="23" viewBox="0 0 22 23" fill="none" xmlns="http://www.w3.org/2000/svg">
<path fill-rule="evenodd" clip-rule="evenodd" d="M20.7799 11.7082C20.7799 10.9594 20.7127 10.2393 20.5879 9.5481H10.6416V13.6332H16.3252C16.0804 14.9533 15.3363 16.0717 14.2179 16.8206V19.4703H17.6309C19.6278 17.6318 20.7799 14.9244 20.7799 11.7082Z" fill="#4285F4"/>
<path fill-rule="evenodd" clip-rule="evenodd" d="M10.6416 22.029C13.493 22.029 15.8836 21.0833 17.6309 19.4704L14.2179 16.8206C13.2722 17.4543 12.0625 17.8287 10.6416 17.8287C7.89104 17.8287 5.56289 15.971 4.73243 13.4748H1.2042V16.211C2.94191 19.6624 6.51335 22.029 10.6416 22.029Z" fill="#34A853"/>
<path fill-rule="evenodd" clip-rule="evenodd" d="M4.73243 13.4748C4.52122 12.8411 4.40121 12.1643 4.40121 11.4682C4.40121 10.7722 4.52122 10.0953 4.73243 9.4617V6.72552H1.2042C0.488952 8.15122 0.080925 9.76412 0.080925 11.4682C0.080925 13.1723 0.488952 14.7853 1.2042 16.2109L4.73243 13.4748Z" fill="#FBBC05"/>
<path fill-rule="evenodd" clip-rule="evenodd" d="M10.6416 5.10781C12.1921 5.10781 13.5842 5.64064 14.6787 6.68711L17.7077 3.65811C15.8788 1.954 13.4882 0.907532 10.6416 0.907532C6.51335 0.907532 2.94191 3.27409 1.2042 6.72551L4.73243 9.46169C5.56289 6.96553 7.89104 5.10781 10.6416 5.10781Z" fill="#EA4335"/>
</svg>
